<svg xmlns="http://www.w3.org/2000/svg" xmlns:xlink="http://www.w3.org/1999/xlink" width="408" height="185" version="1.1" viewBox="0 0 408 185" style="background:#477ffb"><title>paste-dat copy</title><desc>Created with Sketch.</desc><g id="Page-1" fill="none" fill-rule="evenodd" stroke="none" stroke-width="1"><g id="paste-dat-copy"><polygon id="Triangle" stroke="#F8E71C" stroke-width="2" points="274 11.447 285.817 12.316 279.908 22.43"/><polygon id="Triangle-Copy" stroke="#F8E71C" stroke-width="2" points="402 97 413.817 97.869 407.908 107.983"/><polygon id="Triangle-Copy-2" stroke="#F8E71C" stroke-width="2" points="278.087 157.746 289.904 158.615 283.995 168.729" transform="translate(283.995226, 163.237467) rotate(50.000000) translate(-283.995226, -163.237467)"/><polygon id="Triangle-Copy-3" stroke="#F8E71C" stroke-width="2" points="328 162 339.817 162.869 333.908 172.983"/><polygon id="Triangle-Copy-4" stroke="#F8E71C" stroke-width="2" points="309.096 -2.436 320.913 -1.566 315.005 8.548" transform="translate(315.004774, 3.056143) rotate(50.000000) translate(-315.004774, -3.056143)"/><polygon id="Triangle-Copy-4" stroke="#F8E71C" stroke-width="2" points="266.273 128.939 278.09 129.808 272.181 139.922" transform="translate(272.181323, 134.430413) rotate(70.000000) translate(-272.181323, -134.430413)"/><polygon id="Triangle-Copy-4" stroke="#F8E71C" stroke-width="2" points="377.522 149.69 389.339 150.559 383.43 160.673" transform="translate(383.430413, 155.181323) rotate(20.000000) translate(-383.430413, -155.181323)"/><polygon id="Triangle-Copy-4" stroke="#F8E71C" stroke-width="2" points="394.096 58.564 405.913 59.434 400.005 69.548" transform="translate(400.004774, 64.056143) rotate(50.000000) translate(-400.004774, -64.056143)"/><polygon id="Triangle-Copy-4" stroke="#F8E71C" stroke-width="2" points="347.522 16.939 359.339 17.808 353.43 27.922" transform="translate(353.430413, 22.430413) rotate(20.000000) translate(-353.430413, -22.430413)"/><polygon id="Triangle-Copy-4" stroke="#F8E71C" stroke-width="2" points="341.273 108.939 353.09 109.808 347.181 119.922" transform="translate(347.181323, 114.430413) rotate(70.000000) translate(-347.181323, -114.430413)"/><polygon id="Triangle-Copy-4" stroke="#F8E71C" stroke-width="2" points="340.092 44.939 351.908 45.808 346 55.922" transform="translate(346.000000, 50.430413) rotate(70.000000) translate(-346.000000, -50.430413)"/><polygon id="Triangle-Copy-4" stroke="#F8E71C" stroke-width="2" points="395.273 16.939 407.09 17.808 401.181 27.922" transform="translate(401.181323, 22.430413) rotate(20.000000) translate(-401.181323, -22.430413)"/><polygon id="Triangle-Copy-4" stroke="#F8E71C" stroke-width="2" points="285.273 66.897 297.09 67.767 291.181 77.881" transform="translate(291.181323, 72.389113) rotate(70.000000) translate(-291.181323, -72.389113)"/><polygon id="Triangle-Copy-4" stroke="#F8E71C" stroke-width="2" points="318.096 35.564 329.913 36.434 324.005 46.548" transform="translate(324.004774, 41.056143) rotate(50.000000) translate(-324.004774, -41.056143)"/><polygon id="Triangle-Copy-4" stroke="#F8E71C" stroke-width="2" points="386.273 124.939 398.09 125.808 392.181 135.922" transform="translate(392.181323, 130.430413) rotate(70.000000) translate(-392.181323, -130.430413)"/><polygon id="Triangle-Copy-4" stroke="#F8E71C" stroke-width="2" points="362.661 94.69 374.478 95.559 368.57 105.673" transform="translate(368.569587, 100.181323) rotate(20.000000) translate(-368.569587, -100.181323)"/><polygon id="Triangle-Copy-4" stroke="#F8E71C" stroke-width="2" points="369.273 1.939 381.09 2.808 375.181 12.922" transform="translate(375.181323, 7.430413) rotate(70.000000) translate(-375.181323, -7.430413)"/><polygon id="Triangle-Copy-4" stroke="#F8E71C" stroke-width="2" points="346.188 61.203 358.005 62.072 352.097 72.186" transform="translate(352.096524, 66.694556) rotate(2.000000) translate(-352.096524, -66.694556)"/><polygon id="Triangle-Copy-4" stroke="#F8E71C" stroke-width="2" points="296.522 94.69 308.339 95.559 302.43 105.673" transform="translate(302.430413, 100.181323) rotate(20.000000) translate(-302.430413, -100.181323)"/><polygon id="Triangle-Copy-5" stroke="#F8E71C" stroke-width="2" points="308.096 132.564 319.913 133.434 314.005 143.548" transform="translate(314.004774, 138.056143) rotate(50.000000) translate(-314.004774, -138.056143)"/><circle id="Oval" cx="320" cy="66" r="6" fill="#ED97E1"/><circle id="Oval" cx="375" cy="58" r="6" fill="#ED97E1"/><circle id="Oval" cx="279.363" cy="52" r="6" fill="#ED97E1"/><circle id="Oval" cx="404" cy="148" r="6" fill="#ED97E1"/><circle id="Oval" cx="379" cy="33.492" r="6" fill="#ED97E1"/><circle id="Oval" cx="306" cy="21" r="6" fill="#ED97E1"/><circle id="Oval" cx="298" cy="126" r="6" fill="#ED97E1"/><circle id="Oval" cx="328" cy="96" r="6" fill="#ED97E1"/><circle id="Oval" cx="345" cy="2" r="6" fill="#ED97E1"/><circle id="Oval" cx="408" cy="46" r="6" fill="#ED97E1"/><circle id="Oval" cx="375" cy="181" r="6" fill="#ED97E1"/><circle id="Oval" cx="352" cy="142" r="6" fill="#ED97E1"/><circle id="Oval" cx="276.998" cy="99" r="6" fill="#ED97E1"/><circle id="Oval" cx="306" cy="179" r="6" fill="#ED97E1"/><circle id="Oval" cx="389" cy="88" r="6" fill="#ED97E1"/></g></g></svg>